<?xml version="1.0" encoding="iso-8859-1"?>
<!-- Generator: Adobe Illustrator 19.0.0, SVG Export Plug-In . SVG Version: 6.00 Build 0)  -->
<svg version="1.1" id="Capa_1" xmlns="http://www.w3.org/2000/svg" xmlns:xlink="http://www.w3.org/1999/xlink" x="0px" y="0px"
	 viewBox="0 0 512.003 512.003" style="enable-background:new 0 0 512.003 512.003;" xml:space="preserve">
<path style="fill:#DC5371;" d="M454.901,204.073c-2.59,0-5.221-0.511-7.754-1.589l-238.865-101.7
	c-10.07-4.287-14.757-15.926-10.47-25.996s15.926-14.757,25.996-10.47l238.865,101.701c10.07,4.287,14.757,15.926,10.47,25.996
	C469.933,199.552,462.606,204.073,454.901,204.073z"/>
<path style="opacity:0.1;enable-background:new    ;" d="M287.818,91.571l-64.01-27.253c-10.07-4.287-21.709,0.4-25.996,10.47
	s0.4,21.709,10.47,25.996l68.093,28.992c7.263-9.578,11.579-21.513,11.579-34.46C287.953,94.056,287.898,92.81,287.818,91.571z"/>
<path style="fill:#DC5371;" d="M293.975,471.758c-3.476,0-6.995-0.914-10.191-2.835c-9.38-5.639-12.413-17.814-6.774-27.195
	l160.916-267.687c5.639-9.379,17.814-12.412,27.194-6.774c9.38,5.639,12.413,17.814,6.774,27.195L310.978,462.149
	C307.261,468.332,300.701,471.758,293.975,471.758z"/>
<path style="opacity:0.1;enable-background:new    ;" d="M292.99,415.144l-15.98,26.584c-5.639,9.381-2.606,21.556,6.774,27.195
	c3.196,1.921,6.715,2.835,10.191,2.835c6.726,0,13.285-3.426,17.003-9.61l28.256-47.004L292.99,415.144L292.99,415.144z"/>
<path style="opacity:0.1;enable-background:new    ;" d="M465.119,167.267c-9.38-5.638-21.555-2.604-27.194,6.774l-42.668,70.979
	c8.567,10.238,20.655,17.42,34.403,19.697l42.233-70.256C477.532,185.081,474.499,172.905,465.119,167.267z"/>
<circle style="fill:#EC8087;" cx="454.91" cy="184.249" r="57.09"/>
<path style="opacity:0.1;enable-background:new    ;" d="M472.573,129.957c13.962,10.408,23.004,27.048,23.004,45.8
	c0,31.531-25.561,57.092-57.092,57.092c-6.167,0-12.1-0.99-17.663-2.799c9.513,7.092,21.31,11.292,34.088,11.292
	c31.531,0,57.093-25.561,57.093-57.093C512.002,158.886,495.456,137.397,472.573,129.957z"/>
<circle style="fill:#DC5371;" cx="454.91" cy="184.249" r="19.822"/>
<path style="fill:#EC8087;" d="M400.629,486.542H185.197c-7.397,0-13.394-5.997-13.394-13.394V450.61
	c0-7.397,5.997-13.394,13.394-13.394h215.432c7.397,0,13.394,5.997,13.394,13.394v22.538
	C414.023,480.546,408.026,486.542,400.629,486.542z"/>
<path style="opacity:0.1;enable-background:new    ;" d="M400.629,437.217h-27.503c7.397,0,13.394,5.996,13.394,13.394v22.538
	c0,7.397-5.997,13.394-13.394,13.394h27.503c7.397,0,13.394-5.996,13.394-13.394v-22.538
	C414.023,443.214,408.026,437.217,400.629,437.217z"/>
<circle style="fill:#EC8087;" cx="216.04" cy="82.549" r="57.09"/>
<path style="opacity:0.1;enable-background:new    ;" d="M231.119,27.484c14.56,10.346,24.07,27.336,24.07,46.558
	c0,31.531-25.561,57.093-57.092,57.093c-5.22,0-10.27-0.714-15.074-2.026c9.324,6.626,20.713,10.534,33.023,10.534
	c31.531,0,57.092-25.561,57.092-57.092C273.137,56.239,255.333,34.098,231.119,27.484z"/>
<path style="fill:#DC5371;" d="M193.3,264.317c13.115,13.115,35.171,10.549,44.689-5.37c33.21-55.539,25.896-128.558-21.944-176.398
	S95.187,27.396,39.647,60.606c-15.919,9.519-18.485,31.574-5.37,44.689L193.3,264.317z"/>
<path style="opacity:0.1;enable-background:new    ;" d="M216.045,82.55c-31.329-31.329-73.455-45.273-114.4-41.843
	c32.909,2.727,65.064,16.664,90.242,41.843c47.84,47.839,55.154,120.858,21.944,176.397c-3.055,5.11-7.406,8.835-12.334,11.117
	c12.764,5.932,28.762,1.811,36.492-11.117C271.199,203.408,263.884,130.39,216.045,82.55z"/>
<g>
	<path style="fill:#394049;" d="M104.569,91.483c-1.919,0-3.839-0.732-5.304-2.197c-2.929-2.929-2.928-7.678,0.001-10.606
		l6.067-6.066c2.929-2.929,7.678-2.928,10.607,0.001s2.928,7.678,0,10.606l-6.067,6.066
		C108.408,90.751,106.488,91.483,104.569,91.483z"/>
	<path style="fill:#394049;" d="M214.611,201.526c-1.92,0-3.838-0.732-5.303-2.196c-2.929-2.929-2.929-7.678-0.001-10.606
		l6.067-6.067c2.93-2.93,7.677-2.929,10.607-0.001c2.929,2.929,2.929,7.678,0,10.606l-6.067,6.067
		C218.451,200.794,216.531,201.526,214.611,201.526z"/>
	<path style="fill:#394049;" d="M158.476,164.992c-6.479,0.001-12.841-2.531-17.591-7.281c-6.97-6.971-9.164-17.411-5.591-26.599
		c1.501-3.859,5.849-5.773,9.708-4.272c3.86,1.502,5.772,5.849,4.271,9.709c-1.418,3.645-0.547,7.789,2.218,10.555
		c2.764,2.764,6.906,3.633,10.553,2.218c3.864-1.504,8.208,0.412,9.708,4.272c1.501,3.861-0.412,8.207-4.273,9.708
		C164.555,164.439,161.502,164.992,158.476,164.992z"/>
</g>
<g>
	<path style="fill:#F6D83E;" d="M47.678,258.417c-1.919,0-3.839-0.732-5.303-2.196c-2.929-2.93-2.929-7.678,0-10.607l33.14-33.14
		c2.929-2.928,7.678-2.928,10.606,0c2.929,2.93,2.929,7.678,0,10.607l-33.14,33.14C51.517,257.685,49.597,258.417,47.678,258.417z"
		/>
	<path style="fill:#F6D83E;" d="M7.504,171.934c-2.994,0-5.823-1.806-6.983-4.761c-1.514-3.855,0.384-8.209,4.24-9.723
		l32.363-12.707c3.854-1.515,8.208,0.385,9.722,4.24c1.514,3.855-0.384,8.209-4.24,9.723l-32.363,12.707
		C9.343,171.767,8.416,171.934,7.504,171.934z"/>
	<path style="fill:#F6D83E;" d="M134.161,298.595c-0.912,0-1.839-0.167-2.739-0.521c-3.855-1.514-5.754-5.867-4.24-9.723
		l12.707-32.363c1.514-3.854,5.867-5.753,9.722-4.24c3.855,1.514,5.754,5.867,4.24,9.723l-12.707,32.363
		C139.984,296.789,137.155,298.595,134.161,298.595z"/>
</g>
<path style="fill:#5F666F;" d="M379.405,404.396L379.405,404.396c-9.064,0-16.411,7.347-16.411,16.411v16.411h32.822v-16.411
	C395.816,411.743,388.468,404.396,379.405,404.396z"/>
<path style="opacity:0.1;enable-background:new    ;" d="M379.405,404.396c-1.281,0-2.522,0.161-3.718,0.439
	c7.269,1.686,12.692,8.189,12.692,15.972v7.36h-25.385v9.051h32.822v-16.411C395.816,411.743,388.468,404.396,379.405,404.396z"/>
<g>
</g>
<g>
</g>
<g>
</g>
<g>
</g>
<g>
</g>
<g>
</g>
<g>
</g>
<g>
</g>
<g>
</g>
<g>
</g>
<g>
</g>
<g>
</g>
<g>
</g>
<g>
</g>
<g>
</g>
</svg>
