<?xml version="1.0" encoding="iso-8859-1"?>
<!-- Generator: Adobe Illustrator 19.0.0, SVG Export Plug-In . SVG Version: 6.00 Build 0)  -->
<svg version="1.1" id="Capa_1" xmlns="http://www.w3.org/2000/svg" xmlns:xlink="http://www.w3.org/1999/xlink" x="0px" y="0px"
	 viewBox="0 0 505.173 505.173" style="enable-background:new 0 0 505.173 505.173;" xml:space="preserve">
<g>
	<path style="fill:#394F63;" d="M505.173,211.123v90.498l-0.003-0.602v0.604c-0.302,9.821-7.706,20.397-21.681,28.782
		L311.474,433.599c-25.383,15.184-63.08,17.753-83.854,5.741L13.45,314.994C5.594,311.302,0.42,303.571,0.003,294.9v-0.076
		L0,294.933v-90.498L505.173,211.123z"/>
	<path style="fill:#445C71;" d="M13.452,224.354l214.147,124.305c20.785,12.065,58.515,9.501,83.844-5.697l172.014-103.211
		c25.33-15.198,29.048-37.504,8.263-49.569L277.575,65.877c-20.785-12.065-58.515-9.501-83.844,5.697L21.716,174.784
		C-3.614,189.982-7.332,212.289,13.452,224.354z"/>
	<path style="fill:#EBECED;" d="M229.293,196.875c9.032,0.82,18.125-0.65,26.439-4.273c1.958-0.944,3.818-2.08,5.551-3.392
		c6.639-5.094,20.263-4.71,24.426,0.857c3.408,4.891,4.882,10.871,4.139,16.785c-1.095,8.087-6.145,15.098-13.469,18.698
		c-21.798,11.857-47.989,12.417-70.274,1.505c-12.125-7.038-16.126-17.138-12.276-26.638c2.447-6.04,14.173-8.694,22.983-5.789
		C220.864,195.888,225.056,196.643,229.293,196.875z"/>
	<path style="fill:#B4B4B3;" d="M195.028,380.902c-0.666,0.002-1.32-0.174-1.896-0.509L56.584,301.108
		c-1.174-0.674-1.897-1.925-1.896-3.279c0.001-1.354,0.726-2.603,1.9-3.276s2.619-0.666,3.787,0.018l136.548,79.285
		c1.478,0.857,2.196,2.6,1.753,4.249C198.233,379.756,196.737,380.902,195.028,380.902L195.028,380.902z"/>
</g>
<g>
</g>
<g>
</g>
<g>
</g>
<g>
</g>
<g>
</g>
<g>
</g>
<g>
</g>
<g>
</g>
<g>
</g>
<g>
</g>
<g>
</g>
<g>
</g>
<g>
</g>
<g>
</g>
<g>
</g>
</svg>
