<?xml version="1.0" encoding="utf-8"?>
<!-- Generator: Adobe Illustrator 23.0.1, SVG Export Plug-In . SVG Version: 6.00 Build 0)  -->
<svg version="1.1" id="Capa_1" xmlns="http://www.w3.org/2000/svg" xmlns:xlink="http://www.w3.org/1999/xlink" x="0px" y="0px"
	 viewBox="0 0 512 512" style="enable-background:new 0 0 512 512;" xml:space="preserve">
<style type="text/css">
	.st0{fill:#E74C3C;}
	.st1{fill:#E1E6E9;}
	.st2{fill:#EBF0F3;}
	.st3{fill:#C0392B;}
</style>
<path class="st0" d="M224.7,94.7V70.2c0-3.3-2.7-6-6-6H75.1c-3.3,0-6,2.7-6,6v24.5H49.9c-9.9,0-17.9,8-17.9,17.9v305.3
	c0,16.5,13.4,29.9,29.9,29.9h388.3c16.5,0,29.9-13.4,29.9-29.9V112.6c0-9.9-8-17.9-17.9-17.9H224.7z"/>
<rect x="61.5" y="150.5" class="st1" width="389" height="188"/>
<rect x="93.6" y="124" class="st2" width="324.7" height="214.5"/>
<path class="st3" d="M450.1,447.8H61.9c-16.5,0-29.9-13.4-29.9-29.9V256.1c0-13.2,10.7-23.9,23.9-23.9h271.5c8.3,0,16-4.3,20.3-11.3
	l15.5-25.1c4.4-7,12-11.3,20.3-11.3H456c13.2,0,23.9,10.7,23.9,23.9V418C480,434.4,466.6,447.8,450.1,447.8z"/>
</svg>
