<?xml version="1.0" encoding="utf-8"?>
<!-- Generator: Adobe Illustrator 23.0.1, SVG Export Plug-In . SVG Version: 6.00 Build 0)  -->
<svg version="1.1" id="Capa_1" xmlns="http://www.w3.org/2000/svg" xmlns:xlink="http://www.w3.org/1999/xlink" x="0px" y="0px"
	 viewBox="0 0 512 512" style="enable-background:new 0 0 512 512;" xml:space="preserve">
<style type="text/css">
	.st0{fill:#D9272E;}
	.st1{fill:#FFFFFF;}
</style>
<path class="st0" d="M447.9,218.7c0-0.6,0-1.2,0-1.7c0-78.6-63.7-142.3-142.3-142.3c-26,0-50.4,7-71.4,19.2
	c-7.7,4.2-14.8,9.3-21.3,15.2c-8.6,7.4-16.2,15.7-22.9,24.9c-9.5-3.9-19.6-6-30.1-6c-44.1,0-80,35.9-80,80c0,1.6,0,3.2,0.2,4.8
	C33.5,226.3,0,269.8,0,320c0,61.8,50.2,112,112,112h288c61.8,0,112-50.2,112-112C512,275.3,485.9,236.7,447.9,218.7z"/>
<path id="M" class="st1" d="M334.7,224.7L258.5,301c-1.3,1.3-3.4,1.3-4.8,0l-76.3-76.2c-2.6-2.6-6-4-9.7-4h-19.9
	c-3.8,0-6.9,3.1-6.9,6.9v156.7c0,3.8,3.1,6.9,6.9,6.9h28.9c3.8,0,6.9-3.1,6.9-6.9v-89.1c0-0.7,0.9-1.1,1.5-0.6l61.3,61.3
	c5.3,5.3,14,5.3,19.2,0l61.3-61.3c0.5-0.5,1.5-0.1,1.5,0.6v89.1c0,3.8,3.1,6.9,6.9,6.9h28.9c3.8,0,6.9-3.1,6.9-6.9V227.6
	c0-3.8-3.1-6.9-6.9-6.9h-20C340.6,220.9,337.2,222.2,334.7,224.7L334.7,224.7z"/>
</svg>
