<?xml version="1.0" encoding="utf-8"?>
<!-- Generator: Adobe Illustrator 23.0.1, SVG Export Plug-In . SVG Version: 6.00 Build 0)  -->
<svg version="1.1" id="Capa_1" xmlns="http://www.w3.org/2000/svg" xmlns:xlink="http://www.w3.org/1999/xlink" x="0px" y="0px"
	 viewBox="0 0 512 512" style="enable-background:new 0 0 512 512;" xml:space="preserve">
<style type="text/css">
	.st0{fill:#E67E22;}
	.st1{fill:#EBF0F3;}
	.st2{fill:#D35400;}
</style>
<path class="st0" d="M60.2,80.3h107.1c7,0,13.5,3.7,17,9.8l17.6,24.1c3.5,6.1,10,9.8,17,9.8h261v275c0,14.4-11.7,26.2-26.2,26.2
	H58.2C43.7,425.2,32,413.5,32,399V154.5c0-20.2,3.1-40.3,9.3-59.6l0,0C43.5,86.3,51.3,80.3,60.2,80.3z"/>
<rect x="72.8" y="119.5" class="st1" width="344.4" height="145.5"/>
<path class="st2" d="M460.4,93.3h-108c-7.7,0-14.7,4.5-17.8,11.5l-18.5,40.4c-3.2,7-10.2,11.5-17.8,11.5H32v248.9
	c0,14.4,11.7,26.2,26.2,26.2h395.7c14.4,0,26.2-11.7,26.2-26.2V113C480,102.1,471.2,93.3,460.4,93.3z"/>
</svg>
