<?xml version="1.0" encoding="utf-8"?>
<!-- Generator: Adobe Illustrator 23.0.1, SVG Export Plug-In . SVG Version: 6.00 Build 0)  -->
<svg version="1.1" id="Capa_1" xmlns="http://www.w3.org/2000/svg" xmlns:xlink="http://www.w3.org/1999/xlink" x="0px" y="0px"
	 viewBox="0 0 512 512" style="enable-background:new 0 0 512 512;" xml:space="preserve">
<style type="text/css">
	.st0{fill:#3EA69B;}
	.st1{fill:#EBF0F3;}
	.st2{fill:#44C4A1;}
</style>
<g>
	<path class="st0" d="M232,91.8L232,91.8c0-6.3-5.1-11.3-11.3-11.3H83.4c-6.3,0-11.3,5.1-11.3,11.3v4.4c0,5.1-4.1,9.2-9.2,9.2l0,0
		c-6.3,0-11.3,5.1-11.3,11.3V223h397V105.4H245.6C238.1,105.4,232,99.3,232,91.8z"/>
	<rect x="76.7" y="127.4" class="st1" width="361.2" height="186.1"/>
	<path class="st2" d="M457.3,431.5H54.7c-12.5,0-22.7-10.2-22.7-22.7V167.8c0-12.5,10.2-22.7,22.7-22.7h243.6
		c9.3,0,17.7-5.7,21.1-14.4l11-28c3.4-8.7,11.8-14.4,21.1-14.4h105.8c12.5,0,22.7,10.2,22.7,22.7v297.8
		C480,421.4,469.8,431.5,457.3,431.5z"/>
</g>
</svg>
