<?xml version="1.0" encoding="utf-8"?>
<!-- Generator: Adobe Illustrator 23.0.1, SVG Export Plug-In . SVG Version: 6.00 Build 0)  -->
<svg version="1.1" id="Capa_1" xmlns="http://www.w3.org/2000/svg" xmlns:xlink="http://www.w3.org/1999/xlink" x="0px" y="0px"
	 viewBox="0 0 512 512" style="enable-background:new 0 0 512 512;" xml:space="preserve">
<style type="text/css">
	.st0{fill:#E56353;}
	.st1{fill:#D15241;}
	.st2{fill:#EBF0F3;}
	.st3{fill:#E1E6E9;}
	.st4{fill:#2D93BA;}
</style>
<path class="st0" d="M466.5,250h-421V81.6c0-9.9,8-17.9,17.9-17.9h76.9c5.7,0,11.1,2.7,14.5,7.4l21.9,30.1c3.4,4.6,8.8,7.4,14.5,7.4
	h257.3c9.9,0,17.9,8,17.9,17.9L466.5,250L466.5,250z"/>
<path class="st1" d="M427.8,448.3H84.2c-28.8,0-52.2-23.4-52.2-52.2V177.7c0-6.6,5.3-11.9,11.9-11.9H468c6.6,0,11.9,5.3,11.9,11.9
	V396C480,424.9,456.6,448.3,427.8,448.3z"/>
<rect x="169.4" y="224.9" class="st2" width="161.5" height="199.7"/>
<rect x="181.2" y="213.1" class="st3" width="161.5" height="199.7"/>
<path class="st4" d="M306.3,189.6h-15.6c-5.7,0-10.3,4.6-10.3,10.3v13.2h8.8v-13.2c0-0.8,0.7-1.5,1.5-1.5h15.6
	c0.8,0,1.5,0.7,1.5,1.5v52c0,4.1-3.3,7.4-7.4,7.4h-9.7c-4.1,0-7.4-3.3-7.4-7.4v-27.4c0-2.4-2-4.4-4.4-4.4s-4.4,2-4.4,4.4v27.4
	c0,8.9,7.3,16.2,16.2,16.2h9.7c8.9,0,16.2-7.3,16.2-16.2v-52C316.6,194.2,312,189.6,306.3,189.6z"/>
</svg>
