<?xml version="1.0" encoding="utf-8"?>
<!-- Generator: Adobe Illustrator 23.0.1, SVG Export Plug-In . SVG Version: 6.00 Build 0)  -->
<svg version="1.1" id="Layer_1" xmlns="http://www.w3.org/2000/svg" xmlns:xlink="http://www.w3.org/1999/xlink" x="0px" y="0px"
	 viewBox="0 0 512 512" style="enable-background:new 0 0 512 512;" xml:space="preserve">
<style type="text/css">
	.st0{fill:#B4BBCC;}
	.st1{opacity:0.1;enable-background:new    ;}
	.st2{fill:#C7CFE2;}
</style>
<g>
	<path class="st0" d="M261,261c36.6-36.6,96.2-36.6,132.8,0l26.8,26.8c36.6,36.6,36.6,96.2,0,132.8s-96.2,36.6-132.8,0L261,393.8
		C224.4,357.2,224.4,297.6,261,261z M386.1,386.1c17.6-17.6,17.6-46.2,0-63.8l-26.8-26.8c-17.6-17.6-46.2-17.6-63.8,0l0,0
		c-17.6,17.6-17.6,46.2,0,63.8l26.8,26.8C339.8,403.7,368.5,403.7,386.1,386.1z"/>
	<path class="st0" d="M118.2,251l-26.8-26.8c-36.6-36.6-36.6-96.2,0-132.8s96.2-36.6,132.8,0l26.8,26.8c36.6,36.6,36.6,96.2,0,132.8
		S154.8,287.6,118.2,251z M125.9,189.8l26.8,26.8c17.6,17.6,46.2,17.6,63.8,0l0,0c17.6-17.6,17.6-46.2,0-63.8l-26.8-26.8
		c-17.6-17.6-46.2-17.6-63.8,0C108.3,143.5,108.3,172.2,125.9,189.8z"/>
</g>
<path class="st1" d="M295.5,359.3c-17.6-17.6-17.6-46.2,0-63.8l0,0c17.6-17.6,46.2-17.6,63.8,0l15.6,15.6
	c-2.4-7.6-6.6-14.8-12.6-20.9l-54.6-54.6c-17.1,3.6-33.4,12.1-46.7,25.4c-13.3,13.3-21.7,29.6-25.4,46.7l54.6,54.6
	c6,6,13.2,10.2,20.9,12.6L295.5,359.3z"/>
<path class="st1" d="M216.5,152.7c17.6,17.6,17.6,46.2,0,63.8l0,0c-17.6,17.6-46.2,17.6-63.8,0l-15.6-15.6
	c2.4,7.6,6.6,14.8,12.6,20.9l54.6,54.6c17.1-3.6,33.4-12.1,46.7-25.4c13.3-13.3,21.7-29.6,25.4-46.7l-54.6-54.6
	c-6-6-13.2-10.2-20.9-12.6L216.5,152.7z"/>
<path class="st2" d="M168.5,168.5c9.5-9.5,25-9.5,34.5,0L343.5,309c9.5,9.5,9.5,25,0,34.5s-25,9.5-34.5,0L168.5,203
	C159,193.5,159,178,168.5,168.5z"/>
</svg>
