<?xml version="1.0" encoding="iso-8859-1"?>
<!-- Generator: Adobe Illustrator 19.0.0, SVG Export Plug-In . SVG Version: 6.00 Build 0)  -->
<svg version="1.1" id="Capa_1" xmlns="http://www.w3.org/2000/svg" xmlns:xlink="http://www.w3.org/1999/xlink" x="0px" y="0px"
	 viewBox="0 0 468.293 468.293" style="enable-background:new 0 0 468.293 468.293;" xml:space="preserve">
<path style="fill:#EBF0F3;" d="M418.966,90.537c-11.988-15.36-25.85-29.221-41.21-41.21c-23.353-18.17-50.201-32.031-79.423-40.335
	C277.916,3.122,256.375,0,234.146,0c-11.364,0-22.603,0.812-33.53,2.373C99.59,16.921,19.168,96.218,2.997,196.745
	C0.999,208.921,0,221.409,0,234.146c0,20.854,2.747,41.085,7.867,60.378c8.179,30.595,22.416,58.755,41.46,83.169
	c11.926,15.422,25.787,29.284,41.21,41.272c39.649,30.907,89.537,49.327,143.61,49.327c129.124,0,234.146-105.022,234.146-234.146
	C468.293,180.074,449.873,130.248,418.966,90.537z M234.146,284.098c-2.747,0-5.495-0.25-8.117-0.625
	c-21.104-3.497-37.776-20.168-41.21-41.272c-0.375-2.622-0.624-5.307-0.624-8.055c0-27.598,22.353-49.951,49.951-49.951
	c2.747,0,5.432,0.25,8.055,0.624c21.104,3.434,37.776,20.106,41.272,41.21c0.375,2.622,0.625,5.37,0.625,8.117
	C284.098,261.744,261.744,284.098,234.146,284.098z"/>
<g>
	<path style="fill:#E1E6E9;" d="M298.333,8.991L7.867,294.525C2.747,275.231,0,255.001,0,234.146
		c0-12.738,0.999-25.226,2.997-37.401L200.616,2.373C211.543,0.812,222.782,0,234.146,0C256.375,0,277.916,3.122,298.333,8.991z"/>
	<path style="fill:#E1E6E9;" d="M226.029,283.473l-29.596,29.596L90.537,418.966c-15.423-11.988-29.284-25.85-41.21-41.272
		l135.493-135.493C188.253,263.305,204.925,279.976,226.029,283.473z"/>
	<path style="fill:#E1E6E9;" d="M418.966,90.537L313.006,196.495l-29.534,29.534c-3.497-21.104-20.168-37.776-41.272-41.21
		l29.596-29.596L377.756,49.327C393.116,61.315,406.978,75.176,418.966,90.537z"/>
</g>
<path style="fill:#64798A;" d="M313.006,196.495c-8.616-18.045-23.227-32.655-41.21-41.272c-11.426-5.432-24.164-8.492-37.651-8.492
	c-48.203,0-87.415,39.212-87.415,87.415c0,13.487,3.059,26.287,8.492,37.651c8.679,17.982,23.29,32.593,41.21,41.272
	c11.426,5.432,24.226,8.492,37.713,8.492c48.203,0,87.415-39.212,87.415-87.415C321.561,220.659,318.501,207.859,313.006,196.495z
	 M234.146,284.098c-2.747,0-5.495-0.25-8.117-0.625c-21.104-3.497-37.776-20.168-41.21-41.272c-0.375-2.622-0.624-5.307-0.624-8.055
	c0-27.598,22.353-49.951,49.951-49.951c2.747,0,5.432,0.25,8.055,0.624c21.104,3.434,37.776,20.106,41.272,41.21
	c0.375,2.622,0.625,5.37,0.625,8.117C284.098,261.744,261.744,284.098,234.146,284.098z"/>
<g>
</g>
<g>
</g>
<g>
</g>
<g>
</g>
<g>
</g>
<g>
</g>
<g>
</g>
<g>
</g>
<g>
</g>
<g>
</g>
<g>
</g>
<g>
</g>
<g>
</g>
<g>
</g>
<g>
</g>
</svg>
