<?xml version="1.0" encoding="iso-8859-1"?>
<!-- Generator: Adobe Illustrator 19.0.0, SVG Export Plug-In . SVG Version: 6.00 Build 0)  -->
<svg version="1.1" id="Capa_1" xmlns="http://www.w3.org/2000/svg" xmlns:xlink="http://www.w3.org/1999/xlink" x="0px" y="0px"
	 viewBox="0 0 468.293 468.293" style="enable-background:new 0 0 468.293 468.293;" xml:space="preserve">
<path style="fill:#64798A;" d="M462.749,442.948H209.385v-67.331l207.32,0c2.801,0,5.183,2.074,5.482,4.858
	c1.872,17.422,16.33,34.819,43.489,52.191C470.383,435.676,468.335,442.948,462.749,442.948z"/>
<circle style="fill:#E1E6E9;" cx="208.802" cy="234.146" r="208.802"/>
<g>
	<path style="fill:#D5D6DB;" d="M264.505,114.609c0,2.061-0.39,4.287-1.114,6.626c-6.236,20.157-36.972,49.055-54.567,49.055
		c-17.651,0-48.442-28.954-54.567-49.11c-0.724-2.338-1.114-4.509-1.114-6.57c0-19.711,35.97-55.68,55.68-55.68
		C228.479,58.929,264.505,94.898,264.505,114.609z"/>
	<path style="fill:#D5D6DB;" d="M264.505,353.7c0,19.655-36.025,55.68-55.68,55.68c-19.711,0-55.68-36.025-55.68-55.68
		c0-2.061,0.39-4.287,1.114-6.626c6.18-20.211,36.916-49.055,54.567-49.055c17.595,0,48.33,28.843,54.567,49.055
		C264.115,349.413,264.505,351.639,264.505,353.7z"/>
	<path style="fill:#D5D6DB;" d="M143.957,234.155c0,17.429-28.731,47.884-48.553,53.732c-2.172,0.667-4.232,1.002-6.125,1.002
		c-19.377,0-54.734-35.413-54.734-54.734c0-19.377,35.357-54.734,54.734-54.734c1.893,0,3.953,0.334,6.069,1.002
		C115.17,186.213,143.957,216.672,143.957,234.155z"/>
	<path style="fill:#D5D6DB;" d="M384.05,234.155c0,19.655-36.025,55.68-55.68,55.68c-2.06,0-4.287-0.39-6.626-1.113
		c-20.212-6.237-49.054-36.973-49.054-54.567c0-17.65,28.843-48.386,49.054-54.567c2.339-0.723,4.566-1.113,6.626-1.113
		C348.025,178.474,384.05,214.444,384.05,234.155z"/>
</g>
<g>
	<path style="fill:#64798A;" d="M143.957,234.155c0,17.429-28.731,47.884-48.553,53.732c-9.354-15.758-14.7-34.133-14.7-53.732
		c0-19.6,5.345-37.974,14.644-53.732C115.17,186.213,143.957,216.672,143.957,234.155z"/>
	<path style="fill:#64798A;" d="M263.391,347.075c-15.924,9.577-34.633,15.145-54.567,15.145c-19.934,0-38.642-5.512-54.567-15.145
		c6.18-20.211,36.916-49.055,54.567-49.055C226.419,298.02,257.155,326.863,263.391,347.075z"/>
	<path style="fill:#64798A;" d="M154.258,121.179c15.925-9.577,34.633-15.089,54.567-15.089c19.934,0,38.642,5.512,54.567,15.145
		c-6.236,20.157-36.972,49.055-54.567,49.055C191.174,170.29,160.382,141.336,154.258,121.179z"/>
	<path style="fill:#64798A;" d="M336.889,234.155c0,19.934-5.568,38.642-15.145,54.567c-20.212-6.237-49.054-36.973-49.054-54.567
		c0-17.65,28.843-48.386,49.054-54.567C331.377,195.513,336.889,214.221,336.889,234.155z"/>
	<circle style="fill:#64798A;" cx="208.521" cy="201.366" r="13.918"/>
	<circle style="fill:#64798A;" cx="208.521" cy="267.614" r="13.225"/>
	<circle style="fill:#64798A;" cx="241.639" cy="234.521" r="13.918"/>
	<circle style="fill:#64798A;" cx="175.391" cy="234.521" r="13.362"/>
</g>
<g>
</g>
<g>
</g>
<g>
</g>
<g>
</g>
<g>
</g>
<g>
</g>
<g>
</g>
<g>
</g>
<g>
</g>
<g>
</g>
<g>
</g>
<g>
</g>
<g>
</g>
<g>
</g>
<g>
</g>
</svg>
