<?xml version="1.0" encoding="utf-8"?>
<!-- Generator: Adobe Illustrator 23.0.1, SVG Export Plug-In . SVG Version: 6.00 Build 0)  -->
<svg version="1.1" id="Layer_1" xmlns="http://www.w3.org/2000/svg" xmlns:xlink="http://www.w3.org/1999/xlink" x="0px" y="0px"
	 viewBox="0 0 512 512" style="enable-background:new 0 0 512 512;" xml:space="preserve">
<style type="text/css">
	.st0{fill:#EBF0F3;}
	.st1{fill:#D5D6DB;}
	.st2{fill:#E56353;}
</style>
<path class="st0" d="M64,32c-17.7,0-32,14.3-32,32v384c0,17.7,14.3,32,32,32h384c17.7,0,32-14.3,32-32V144L368,32H64z"/>
<path class="st1" d="M368,32v80c0,17.7,14.3,32,32,32h80L368,32z"/>
<path class="st2" d="M129.4,414.9c-10.3,0-18.3-5.9-22-9.5c-12.5-14.7-12.5-27.1-10.3-35.2c1.5-7.3,5.9-13.9,12.5-18.3
	c9.5-7.3,36-25.7,74.8-41.8c20.5-37.4,34.5-67.5,44-91.7c-16.1-30.8-22-55.8-23.5-68.2c-1.5-10.3-0.7-20.5,2.2-29.3
	c7.3-23.5,23.5-24.2,30.1-23.5c1.5,0,27.1,3.7,31.5,40.4c0,1.5,2.9,24.9-16.9,80c12.5,21.3,30.1,44.8,57.2,67.5
	c25.7,0,53.6,2.2,82.9,9.5c6.6,1.5,12.5,5.1,16.9,10.3c7.3,8.1,8.8,18.3,5.1,28.6l0,0c0,0-1.5,5.1-5.9,10.3
	c-8.1,11-23.5,14.7-36,8.1c-27.9-14.7-51.4-30.1-70.4-46.2c-38.9,1.5-73.4,10.3-101.3,21.3c-12.5,22.7-27.9,47.7-45.5,75.6
	c-3.7,5.1-8.1,9.5-13.9,11.7l0,0C136,414.2,132.3,414.9,129.4,414.9z M165.3,340.8c-22,11.7-37.4,22-43.3,27.1
	c-2.2,2.2-4.4,4.4-4.4,6.6c-1.5,5.1,0.7,10.3,5.9,16.1c0,0,4.4,3.7,8.8,2.2l0,0c1.5-0.7,2.9-1.5,3.7-3.7
	C146.3,372.4,156.5,356.2,165.3,340.8z M336.3,305.6c13.2,8.8,27.9,18.3,44,26.4c2.9,1.5,6.6,0.7,8.8-2.2c2.2-2.9,2.9-5.1,2.9-5.1
	c1.5-3.7,1.5-5.1-0.7-7.3c-1.5-1.5-3.7-2.9-6.6-3.7C368.6,309.3,352.4,307.1,336.3,305.6z M240.9,240.3c-7.3,16.9-16.1,36-27.9,58
	c19.8-5.9,41.1-11,64.6-13.2C262.9,269.7,250.5,254.2,240.9,240.3z M233.6,117c-2.9,0-5.1,2.9-7.3,9.5c-2.2,5.9-2.2,12.5-1.5,19.8
	c1.5,8.8,4.4,23.5,12.5,42.6c11-35.2,9.5-49.9,9.5-49.9C244.6,119.2,234.3,117,233.6,117L233.6,117z"/>
</svg>
