<?xml version="1.0" encoding="utf-8"?>
<!-- Generator: Adobe Illustrator 23.0.1, SVG Export Plug-In . SVG Version: 6.00 Build 0)  -->
<svg version="1.1" id="Layer_1" xmlns="http://www.w3.org/2000/svg" xmlns:xlink="http://www.w3.org/1999/xlink" x="0px" y="0px"
	 viewBox="0 0 512 512" style="enable-background:new 0 0 512 512;" xml:space="preserve">
<style type="text/css">
	.st0{fill:#005FAD;}
	.st1{fill:#5E96DC;}
</style>
<path class="st0" d="M64,32c-17.7,0-32,14.3-32,32v384c0,17.7,14.3,32,32,32h384c17.7,0,32-14.3,32-32V144L368,32H64z"/>
<path class="st1" d="M368,32v80c0,17.7,14.3,32,32,32h80L368,32z"/>
<g>
	<path class="st1" d="M124.7,195c0-9.6,7.6-17.2,17.2-17.2h46.7c37.3,0,59.9,22.1,59.9,54.1v0.5c0,36.2-28.2,55-63.3,55h-26.2v31.1
		c0,9.6-7.6,17.2-17.2,17.2c-9.6,0-17.2-7.6-17.2-17.2L124.7,195L124.7,195z M186.4,256.7c17.2,0,27.3-10.3,27.3-23.7v-0.5
		c0-15.4-10.7-23.7-27.9-23.7h-26.6v47.8H186.4z"/>
	<path class="st1" d="M271,317.7c-3.8-2.7-6.5-7.6-6.5-13c0-8.9,7.2-15.9,16.1-15.9c4.5,0,7.6,1.6,9.8,3.1
		c11.8,8.7,24.8,14.1,40,14.1c14.1,0,22.6-5.6,22.6-14.8v-0.5c0-8.7-5.4-13.2-31.5-19.9c-31.5-8-51.9-16.8-51.9-47.8v-0.4
		c0-28.4,22.8-47.2,54.8-47.2c19,0,35.5,4.9,49.6,13.9c3.8,2.2,7.6,6.9,7.6,13.6c0,8.9-7.2,15.9-16.1,15.9c-3.4,0-6-0.9-8.7-2.5
		c-11.4-6.7-22.1-10.5-32.9-10.5c-13.2,0-20.1,6-20.1,13.6v0.4c0,10.3,6.7,13.6,33.8,20.6c31.7,8.3,49.6,19.7,49.6,46.9v0.5
		c0,31.1-23.7,48.5-57.5,48.5C309.3,336.5,288.5,330.2,271,317.7z"/>
</g>
</svg>
