<?xml version="1.0" encoding="utf-8"?>
<!-- Generator: Adobe Illustrator 23.0.1, SVG Export Plug-In . SVG Version: 6.00 Build 0)  -->
<svg version="1.1" id="Layer_1" xmlns="http://www.w3.org/2000/svg" xmlns:xlink="http://www.w3.org/1999/xlink" x="0px" y="0px"
	 viewBox="0 0 32 32" style="enable-background:new 0 0 32 32;" xml:space="preserve">
<style type="text/css">
	.st0{fill:#FFE7AC;}
</style>
<title>file_type_textile</title>
<path class="st0" d="M28.7,26H3.3C2.6,26,2,25.4,2,24.7l0,0V7.3C2,6.6,2.6,6,3.3,6l0,0h25.4C29.4,6,30,6.6,30,7.3l0,0v17.3
	C30,25.4,29.4,26,28.7,26L28.7,26z"/>
<path d="M6.1,12.8c0.5-0.3,1-0.5,1.5-0.7v-1.5c0.2-0.1,0.5-0.2,0.7-0.3C8.7,10.1,9.2,10,9.6,10h0.6v2.4h2.5v1.2h-2.5v4.8
	c0,0.6,0.1,1.1,0.3,1.6c0.2,0.3,0.6,0.5,1,0.4c0.3,0,0.5,0,0.8,0s0.5-0.1,0.8-0.2l0.1,0.6c-0.2,0.1-0.3,0.3-0.5,0.4
	s-0.5,0.3-0.8,0.4s-0.6,0.2-0.9,0.3C10.7,22,10.4,22,10,22c-0.7,0.1-1.3-0.2-1.8-0.6c-0.5-0.6-0.7-1.3-0.6-2.1v-5.7H6.1V12.8z"/>
<path d="M14.6,20.5c0-0.4,0.1-0.8,0.4-1.1c0.3-0.3,0.7-0.4,1.1-0.4c0.4,0,0.8,0.1,1.2,0.4c0.3,0.3,0.5,0.7,0.5,1.1s-0.1,0.8-0.5,1.1
	C17,21.9,16.6,22,16.1,22c-0.4,0-0.8-0.1-1.1-0.4C14.7,21.3,14.6,20.9,14.6,20.5z"/>
</svg>
