<?xml version="1.0" encoding="utf-8"?>
<!-- Generator: Adobe Illustrator 23.0.1, SVG Export Plug-In . SVG Version: 6.00 Build 0)  -->
<svg version="1.1" id="Capa_1" xmlns="http://www.w3.org/2000/svg" xmlns:xlink="http://www.w3.org/1999/xlink" x="0px" y="0px"
	 viewBox="0 0 512 512" style="enable-background:new 0 0 512 512;" xml:space="preserve">
<style type="text/css">
	.st0{fill:#FCD462;}
	.st1{fill:#F6C358;}
	.st2{fill:#1C75A1;}
	.st3{fill:#64798A;}
	.st4{fill:#E1E6E9;}
</style>
<path class="st0" d="M480,120.1v283.7c0,16.5-13.3,29.9-29.9,29.9H61.9c-16.5,0-29.9-13.4-29.9-29.9V96.2c0-9.9,8.1-17.9,17.9-17.9
	H136c3.8,0,7.5,1.2,10.5,3.4l23.5,17c3,2.3,6.8,3.5,10.5,3.5H462C472,102.2,480,110.2,480,120.1z"/>
<rect x="32" y="187.5" class="st1" width="448" height="23.9"/>
<rect x="241.8" y="210.1" class="st2" width="28.4" height="28.4"/>
<rect x="270.2" y="238.4" class="st2" width="28.4" height="28.4"/>
<rect x="241.8" y="266.8" class="st2" width="28.4" height="28.4"/>
<rect x="270.2" y="295.2" class="st2" width="28.4" height="28.4"/>
<rect x="241.8" y="323.6" class="st2" width="28.4" height="28.4"/>
<path class="st3" d="M270.2,417.6L270.2,417.6c-15.7,0-28.4-12.7-28.4-28.4v-21.9h56.7v21.9C298.6,404.9,285.9,417.6,270.2,417.6z"
	/>
<rect x="254.3" y="379.4" class="st4" width="31.8" height="17"/>
</svg>
